Simulation
nRows=15
nColumns=15
endheader
time  TH_x TH_y TH_z SC_y  SC_z  SC_x  AC_y  AC_z  AC_x  GH_y  GH_z  GH_yy  EL_x  PS_y
0.0  0.000000  0.000000  0.000000  -28.33899483455304  1.7428343615692186  5.780652548771841  49.38479442207383  3.6982098188744477  1.522764154074784  31.824273385138618  -1.051242944610738  5.378706135787034  20.55397414080886  120.000000
0.02949999999999999  0.000000  0.000000  0.000000  -27.85858058045509  2.2828563274000446  5.867147216359231  49.373839657437564  3.739040996092709  1.8587558009841232  31.77985110888852  -0.6483579198652779  4.998160922041062  20.656939618577976  120.000000
0.05899999999999998  0.000000  0.000000  0.000000  -27.49588628843064  2.70072394587495  5.844615728531005  49.31673711343414  3.700840645597441  2.1105317065432896  31.770229499386645  -0.34673293307293307  4.657016724208468  20.692721939074048  120.000000
0.08849999999999997  0.000000  0.000000  0.000000  -27.253072122097162  2.9763677882709585  5.743689926543484  49.20516340356521  3.616153678314031  2.283390592600997  31.795381407416965  -0.0954358338469455  4.3616350545571905  20.630661838731488  120.000000
0.11799999999999997  0.000000  0.000000  0.000000  -27.08758923575632  3.127022275837757  5.584591842253027  49.05519363368864  3.514233026532697  2.3853397682548967  31.843233467069748  0.15245610053999922  4.107067017089227  20.458552300344238  120.000000
0.14749999999999996  0.000000  0.000000  0.000000  -26.95764034565831  3.1991927490744176  5.39028495644467  48.88236968272152  3.411911839416543  2.438515226700231  31.898759611331403  0.43049354086926894  3.884936972478271  20.179478388591242  120.000000
0.17699999999999994  0.000000  0.000000  0.000000  -26.83814997400731  3.2278625573798747  5.181785285830946  48.69546714852894  3.3214326666060745  2.4594910853513086  31.9369942496289  0.7633302760874778  3.675480128018211  19.80620892916526  120.000000
0.20649999999999993  0.000000  0.000000  0.000000  -26.719000342260404  3.2412720155736654  4.9768358450359305  48.50207180673057  3.2492737727621535  2.462318833040913  31.93151679531374  1.167589770142064  3.462438513335313  19.3557478903044  120.000000
0.23599999999999993  0.000000  0.000000  0.000000  -26.599027678675856  3.2592604813750246  4.788891587688103  48.308065365724424  3.20071371786015  2.4558170320634716  31.84965343683968  1.6526042653672115  3.234497362790245  18.851517087112278  120.000000
0.2654999999999999  0.000000  0.000000  0.000000  -26.483152411686465  3.2928280992164534  4.627304597980614  48.11849848179532  3.181073903878457  2.445296745502747  31.660239285772  2.2233521920349153  2.984219268668841  18.315662972590257  120.000000
0.29499999999999993  0.000000  0.000000  0.000000  -26.378389546048414  3.347323385627837  4.498209798682012  47.937828405501165  3.196625820307082  2.433701976267203  31.339271005970765  2.881278341759621  2.7044256918011538  17.771776522343746  120.000000
0.3244999999999999  0.000000  0.000000  0.000000  -26.292076591987467  3.424079972755891  4.404897123592035  47.77031198003526  3.2538703558026953  2.422965206036341  30.869724566195117  3.6259969680293884  2.3864204378578497  17.2445662173949  120.000000
0.35399999999999987  0.000000  0.000000  0.000000  -26.23089130464229  3.5216465373862986  4.348191436974666  47.61964951103111  3.358617527143056  2.4152100113699357  30.239691584260893  4.455780364705452  2.0172873506161553  16.760019491133257  120.000000
0.3834999999999999  0.000000  0.000000  0.000000  -26.20095756374729  3.6367212798685977  4.326317018293691  47.48961510424421  3.515624089536651  2.413662093912648  29.442533671422687  5.3684664832025915  1.579661975641145  16.344672693966913  120.000000
0.41299999999999987  0.000000  0.000000  0.000000  -26.20911678458473  3.764173547862307  4.335579889723069  47.384040627898926  3.728642948195245  2.4234935024116955  28.478301278254072  6.3613246688293765  1.0540890908105112  16.022535057133542  120.000000
